<?xml version="1.0" encoding="UTF-8" standalone="no"?>
<!-- Created with Inkscape (http://www.inkscape.org/) -->

<svg
   xmlns:dc="http://purl.org/dc/elements/1.1/"
   xmlns:cc="http://creativecommons.org/ns#"
   xmlns:rdf="http://www.w3.org/1999/02/22-rdf-syntax-ns#"
   xmlns:svg="http://www.w3.org/2000/svg"
   xmlns="http://www.w3.org/2000/svg"
   xmlns:sodipodi="http://sodipodi.sourceforge.net/DTD/sodipodi-0.dtd"
   xmlns:inkscape="http://www.inkscape.org/namespaces/inkscape"
   width="600mm"
   height="600mm"
   viewBox="0 0 600 600"
   version="1.1"
   id="svg1609"
   sodipodi:docname="newlogo.svg"
   inkscape:version="0.92.3 (2405546, 2018-03-11)">
  <defs
     id="defs1603" />
  <sodipodi:namedview
     id="base"
     pagecolor="#ffffff"
     bordercolor="#666666"
     borderopacity="1.0"
     inkscape:pageopacity="0.0"
     inkscape:pageshadow="2"
     inkscape:zoom="0.24748737"
     inkscape:cx="-35.794794"
     inkscape:cy="1240.571"
     inkscape:document-units="mm"
     inkscape:current-layer="g5275"
     showgrid="false"
     showguides="false"
     inkscape:window-width="1920"
     inkscape:window-height="1017"
     inkscape:window-x="-8"
     inkscape:window-y="-8"
     inkscape:window-maximized="1" />
  <metadata
     id="metadata1606">
    <rdf:RDF>
      <cc:Work
         rdf:about="">
        <dc:format>image/svg+xml</dc:format>
        <dc:type
           rdf:resource="http://purl.org/dc/dcmitype/StillImage" />
        <dc:title />
      </cc:Work>
    </rdf:RDF>
  </metadata>
  <g
     inkscape:label="Layer 1"
     inkscape:groupmode="layer"
     id="layer1"
     transform="translate(0,303)">
    <g
       id="g6745">
      <g
         id="layer1-9"
         inkscape:label="Layer 1"
         transform="matrix(1.1718648,0,0,1.171875,0.0051982,-303)">
        <path
           id="path4796-3"
           d="M 256.00003,512 C 397.16233,512 512,397.15655 512,256 512,114.84343 397.16233,0 256.00003,0 114.83771,0 0,114.84459 0,256 0,397.15541 114.83771,512 256.00003,512 Z"
           style="opacity:1;fill:#009ae4;fill-opacity:1;stroke-width:1.14999843"
           inkscape:connector-curvature="0" />
        <path
           id="path4798-1"
           d="M -0.00443584,256.00058 C -0.00443584,114.84485 114.83524,-4e-6 256.00003,-4e-6 V 512 C 114.83524,512.00115 -0.00443584,397.1563 -0.00443584,256.00058 Z"
           style="opacity:1;fill:#00c0f1;fill-opacity:1;stroke-width:1.15000963"
           inkscape:connector-curvature="0" />
      </g>
      <g
         transform="translate(-0.2184259,-46.548109)"
         id="g5275">
        <g
           id="g7532"
           transform="matrix(0.99222429,0,0,0.99222429,9.3909044,-2.6616799)">
          <g
             transform="matrix(0.73751786,0,0,0.73751786,243.74594,-119.92084)"
             id="g2418">
            <g
               id="g2394">
              <path
                 style="fill:#ffce71"
                 inkscape:connector-curvature="0"
                 d="m 455.516,125.321 c -3.231,-14.891 -10.162,-26.907 -19.313,-35.958 -7.52,-7.436 -11.871,-17.456 -12.409,-27.972 -0.038,-0.737 -0.059,-1.477 -0.059,-2.218 v -28.69 c 0,-16.271 -12.757,-30.025 -29.022,-30.471 -16.875,-0.463 -30.701,13.079 -30.701,29.85 V 45.6 c 0,14.226 -7.059,27.535 -18.866,35.472 -11.528,7.75 -21.13,19.272 -26.936,34.697 -20.138,53.493 -51.564,102.732 -92.893,144.062 -41.33,41.33 -90.568,72.755 -144.062,92.893 -33.457,12.595 -48.544,43.041 -46.568,72.27 1.984,29.349 21.172,57.472 56.255,65.066 42.605,9.223 87.443,9.426 131.628,-0.433 116.035,-25.89 206.654,-116.509 232.545,-232.545 9.867,-44.23 9.653,-89.116 0.401,-131.761 z"
                 id="path2390" />
              <path
                 style="fill:#ffb357"
                 inkscape:connector-curvature="0"
                 d="m 423.794,61.391 c -0.038,-0.737 -0.059,-1.477 -0.059,-2.218 V 44.124 30.483 c 0,-16.271 -12.757,-30.025 -29.022,-30.471 -16.875,-0.463 -30.701,13.079 -30.701,29.85 V 44.411 45.6 c 0,14.226 -7.059,27.535 -18.866,35.472 -11.528,7.75 -21.13,19.272 -26.936,34.697 -20.138,53.493 -51.564,102.732 -92.893,144.062 -41.33,41.33 -90.568,72.755 -144.062,92.893 -33.457,12.595 -48.544,43.041 -46.568,72.27 101.733,9.68 202.717,-24.88 277.188,-94.87 C 385.848,260.6 426.544,162.8 423.794,61.391 Z"
                 id="path2392" />
            </g>
            <path
               style="fill:#00c084"
               inkscape:connector-curvature="0"
               d="M 423.735,44.124 V 30.483 c 0,-16.271 -12.757,-30.025 -29.022,-30.471 -16.875,-0.463 -30.701,13.079 -30.701,29.85 v 14.549 c 19.618,4.944 40.172,4.846 59.723,-0.287 z"
               id="path2396" />
            <g
               id="g2408">
              <g
                 id="g2406">
                <g
                   id="g2400">
                  <ellipse
                     style="fill:#ff8e9e"
                     cx="279.103"
                     cy="251.95399"
                     rx="21.9"
                     ry="27.5"
                     transform="matrix(0.5,-0.866,0.866,0.5,-78.646,367.688)"
                     id="ellipse2398" />
                </g>
                <g
                   id="g2404">
                  <ellipse
                     style="fill:#ff8e9e"
                     cx="396.366"
                     cy="319.655"
                     rx="21.9"
                     ry="27.5"
                     transform="matrix(0.5,-0.866,0.866,0.5,-78.648,503.088)"
                     id="ellipse2402" />
                </g>
              </g>
            </g>
            <g
               style="fill:#313d40"
               id="g2416">
              <path
                 inkscape:connector-curvature="0"
                 d="m 312.575,224.483 c -3.587,-2.072 -8.174,-0.842 -10.245,2.745 l -6,10.393 c -2.071,3.587 -0.842,8.174 2.745,10.245 1.181,0.682 2.471,1.006 3.743,1.006 2.592,0 5.113,-1.346 6.502,-3.751 l 6,-10.393 c 2.072,-3.587 0.842,-8.174 -2.745,-10.245 z"
                 id="path2410" />
              <path
                 inkscape:connector-curvature="0"
                 d="m 403.419,276.932 c -3.587,-2.072 -8.174,-0.842 -10.245,2.745 l -6,10.393 c -2.071,3.587 -0.842,8.174 2.745,10.245 1.181,0.682 2.471,1.006 3.743,1.006 2.592,0 5.113,-1.346 6.502,-3.751 l 6,-10.393 c 2.071,-3.587 0.842,-8.174 -2.745,-10.245 z"
                 id="path2412" />
              <path
                 inkscape:connector-curvature="0"
                 d="m 360.251,268.424 c -3.929,1.348 -8.24,0.933 -11.826,-1.137 -3.586,-2.07 -6.1,-5.596 -6.897,-9.673 -0.795,-4.065 -4.739,-6.714 -8.8,-5.92 -4.065,0.795 -6.716,4.735 -5.92,8.8 1.63,8.333 6.776,15.544 14.119,19.783 4.504,2.601 9.564,3.926 14.657,3.926 3.208,0 6.43,-0.526 9.534,-1.591 3.918,-1.343 6.005,-5.609 4.661,-9.527 -1.344,-3.918 -5.607,-6.003 -9.528,-4.661 z"
                 id="path2414" />
            </g>
          </g>
          <g
             transform="matrix(0.61660942,0,0,0.61660942,173.58102,-196.4774)"
             id="g2995">
            <path
               inkscape:connector-curvature="0"
               style="fill:#67c787"
               d="m 130.773,30.811 c -10.454,-0.937 -19.227,7.837 -18.291,18.291 2.112,23.571 10.503,64.649 42.029,96.175 24.055,24.055 63.951,31.52 83.953,11.518 C 258.466,136.793 251.001,96.896 226.946,72.842 195.421,41.314 154.343,32.923 130.773,30.811 Z"
               id="path2898" />
            <path
               inkscape:connector-curvature="0"
               style="opacity:0.1;enable-background:new"
               d="m 207.559,133.388 c -1.92,0 -3.839,-0.732 -5.303,-2.197 L 155.267,84.202 c -2.929,-2.929 -2.929,-7.678 0,-10.606 2.929,-2.929 7.678,-2.929 10.606,0 l 46.989,46.989 c 2.929,2.929 2.929,7.678 0,10.607 -1.464,1.464 -3.383,2.196 -5.303,2.196 z"
               id="path2900" />
            <path
               inkscape:connector-curvature="0"
               style="fill:#b38a82"
               d="m 256,186.526 c -12.735,0 -23.058,-10.323 -23.058,-23.058 0,-0.933 -0.01,-2.018 -0.02,-3.244 -0.197,-23.47 -0.795,-94.892 43.949,-151.469 7.9,-9.988 22.401,-11.681 32.389,-3.782 9.988,7.899 11.682,22.4 3.782,32.389 -34.665,43.833 -34.169,103.025 -34.006,122.476 0.012,1.372 0.021,2.587 0.021,3.631 10e-4,12.733 -10.322,23.057 -23.057,23.057 z"
               id="path2902" />
            <path
               inkscape:connector-curvature="0"
               style="opacity:0.1;enable-background:new"
               d="m 280.12,128.721 c -15.037,4.872 -31.228,5.069 -46.358,0.586 -0.985,13.306 -0.897,24.123 -0.84,30.916 0.01,1.226 0.02,2.311 0.02,3.244 0,12.735 10.323,23.058 23.058,23.058 12.735,0 23.058,-10.323 23.058,-23.058 0,-1.044 -0.01,-2.258 -0.021,-3.631 -0.055,-6.557 -0.146,-17.635 1.083,-31.115 z"
               id="path2904" />
            <path
               inkscape:connector-curvature="0"
               style="fill:#f27281"
               d="m 359.687,129.697 c -23.359,0 -45.233,6.349 -63.995,17.415 -24.453,14.423 -54.931,14.423 -79.384,0 -18.761,-11.066 -40.636,-17.415 -63.995,-17.415 -69.685,0 -126.176,56.491 -126.176,126.176 0,74.784 68.793,256.126 178.535,256.126 16.373,0 32.452,-6.411 43.503,-12.105 4.902,-2.526 10.747,-2.526 15.649,0 11.052,5.694 27.13,12.105 43.503,12.105 109.742,0 178.535,-181.342 178.535,-256.126 10e-4,-69.686 -56.49,-126.176 -126.175,-126.176 z"
               id="path2906" />
            <path
               inkscape:connector-curvature="0"
               style="fill:#ea6376"
               d="m 171.936,131.231 c -6.396,-0.999 -12.946,-1.535 -19.622,-1.535 -69.685,0 -126.176,56.491 -126.176,126.176 -0.001,74.785 68.792,256.127 178.534,256.127 14.953,0 29.648,-5.347 40.505,-10.612 C 135.657,413.93 111.011,218.318 171.936,131.231 Z"
               id="path2908" />
            <path
               inkscape:connector-curvature="0"
               style="fill:#67c787"
               d="m 381.228,30.811 c 10.454,-0.937 19.227,7.837 18.291,18.291 -2.112,23.571 -10.503,64.649 -42.029,96.175 -24.055,24.055 -63.951,31.52 -83.953,11.518 C 253.535,136.793 261,96.896 285.054,72.842 316.579,41.314 357.657,32.923 381.228,30.811 Z"
               id="path2910" />
            <path
               inkscape:connector-curvature="0"
               style="opacity:0.1;enable-background:new"
               d="m 304.441,133.388 c -1.919,0 -3.839,-0.732 -5.303,-2.197 -2.929,-2.929 -2.929,-7.678 0,-10.607 l 46.989,-46.989 c 2.929,-2.929 7.678,-2.929 10.606,0 2.929,2.929 2.929,7.678 0,10.606 l -46.989,46.989 c -1.464,1.466 -3.384,2.198 -5.303,2.198 z"
               id="path2912" />
            <g
               id="g2918">
              <ellipse
                 style="fill:#e4a2b7"
                 cx="165.11"
                 cy="295.45901"
                 rx="33.537998"
                 ry="26.708"
                 id="ellipse2914" />
              <ellipse
                 style="fill:#e4a2b7"
                 cx="346.89001"
                 cy="295.45901"
                 rx="33.537998"
                 ry="26.708"
                 id="ellipse2916" />
            </g>
            <g
               id="g2926">
              <path
                 inkscape:connector-curvature="0"
                 style="fill:#464d59"
                 d="m 200.616,273.893 c -4.142,0 -7.5,-3.358 -7.5,-7.5 0,-4.667 -3.797,-8.463 -8.463,-8.463 -4.667,0 -8.463,3.797 -8.463,8.463 0,4.142 -3.358,7.5 -7.5,7.5 -4.142,0 -7.5,-3.358 -7.5,-7.5 0,-12.938 10.525,-23.463 23.463,-23.463 12.938,0 23.463,10.525 23.463,23.463 0,4.142 -3.358,7.5 -7.5,7.5 z"
                 id="path2920" />
              <path
                 inkscape:connector-curvature="0"
                 style="fill:#464d59"
                 d="m 343.311,273.893 c -4.142,0 -7.5,-3.358 -7.5,-7.5 0,-4.667 -3.797,-8.463 -8.463,-8.463 -4.666,0 -8.463,3.797 -8.463,8.463 0,4.142 -3.358,7.5 -7.5,7.5 -4.142,0 -7.5,-3.358 -7.5,-7.5 0,-12.938 10.525,-23.463 23.463,-23.463 12.938,0 23.463,10.525 23.463,23.463 0,4.142 -3.358,7.5 -7.5,7.5 z"
                 id="path2922" />
              <path
                 inkscape:connector-curvature="0"
                 style="fill:#464d59"
                 d="m 256,300.266 c -8.658,0 -16.891,-3.749 -22.587,-10.287 -2.721,-3.123 -2.396,-7.86 0.727,-10.582 3.123,-2.721 7.86,-2.396 10.582,0.727 2.848,3.268 6.958,5.142 11.279,5.142 4.32,0 8.431,-1.874 11.279,-5.142 2.721,-3.123 7.46,-3.448 10.582,-0.727 3.123,2.721 3.448,7.459 0.727,10.582 -5.698,6.537 -13.931,10.287 -22.589,10.287 z"
                 id="path2924" />
            </g>
            <g
               id="g2928" />
            <g
               id="g2930" />
            <g
               id="g2932" />
            <g
               id="g2934" />
            <g
               id="g2936" />
            <g
               id="g2938" />
            <g
               id="g2940" />
            <g
               id="g2942" />
            <g
               id="g2944" />
            <g
               id="g2946" />
            <g
               id="g2948" />
            <g
               id="g2950" />
            <g
               id="g2952" />
            <g
               id="g2954" />
            <g
               id="g2956" />
          </g>
          <g
             transform="matrix(0.69123834,0,0,0.69123834,-16.091459,-151.80183)"
             id="g2569">
            <circle
               style="fill:#f09d2d"
               cx="228.328"
               cy="295.43399"
               r="203.058"
               id="circle2446" />
            <path
               inkscape:connector-curvature="0"
               style="opacity:0.07999998;enable-background:new"
               d="m 429.162,265.366 c -3.155,-4.713 -9.354,-6.644 -14.724,-4.139 l -303.985,141.75 c -6.197,2.89 -8.587,10.421 -5.275,16.403 18.285,33.026 45.731,58.253 77.62,73.98 14.638,3.353 29.876,5.129 45.53,5.129 112.144,0 203.055,-90.911 203.055,-203.055 0,-10.219 -0.764,-20.257 -2.221,-30.068 z"
               id="path2448" />
            <path
               inkscape:connector-curvature="0"
               style="opacity:0.07999998;enable-background:new"
               d="m 231.476,96.703 c -0.981,-1.316 -2.097,-2.774 -3.32,-4.324 -45.939,0.038 -88.3,15.337 -122.307,41.094 5.81,2.175 11.876,3.907 18.193,5.017 44.313,7.783 87.588,-16.542 105.019,-28.04 4.609,-3.041 5.712,-9.319 2.415,-13.747 z"
               id="path2450" />
            <path
               inkscape:connector-curvature="0"
               style="fill:#b67749"
               d="m 228.328,129.053 c -7.221,0 -13.075,-5.854 -13.075,-13.075 0,-33.609 12.305,-60.662 37.618,-82.707 5.446,-4.743 13.704,-4.172 18.448,1.274 4.743,5.446 4.172,13.705 -1.274,18.448 -19.542,17.017 -28.642,37.031 -28.642,62.987 0,7.218 -5.854,13.073 -13.075,13.073 z"
               id="path2456" />
            <path
               inkscape:connector-curvature="0"
               style="fill:#f09d2d"
               d="m 154.84,402.977 c -6.197,2.89 -8.587,10.421 -5.276,16.403 45.364,81.941 147.104,115.911 233.278,75.727 86.175,-40.184 125.549,-139.956 91.938,-227.378 -2.454,-6.382 -9.76,-9.392 -15.956,-6.502 z"
               id="path2458" />
            <g
               id="g2464">
              <path
                 inkscape:connector-curvature="0"
                 style="opacity:0.1;fill:#ffffff;enable-background:new"
                 d="m 154.84,402.977 c -6.197,2.89 -8.587,10.421 -5.276,16.403 45.364,81.941 147.104,115.911 233.278,75.727 86.175,-40.184 125.549,-139.956 91.938,-227.378 -2.454,-6.382 -9.76,-9.392 -15.956,-6.502 z"
                 id="path2460" />
              <path
                 inkscape:connector-curvature="0"
                 style="opacity:0.3;fill:#ffffff;enable-background:new"
                 d="m 167.314,406.952 c 15.234,28.455 38.121,50.502 64.887,64.78 4.549,2.427 10.192,0.297 11.955,-4.547 l 38.699,-106.327 c 2.844,-7.812 -5.178,-15.162 -12.712,-11.649 l -98.928,46.132 c -4.38,2.042 -6.182,7.35 -3.901,11.611 z m 190.725,65.004 -43.304,-92.867 c -2.382,-5.109 -9.752,-4.787 -11.679,0.51 l -35.039,96.271 c -1.763,4.845 1.192,10.103 6.237,11.167 25.478,5.378 52.445,4.533 78.52,-3.407 4.942,-1.506 7.449,-6.991 5.265,-11.674 z m 35.342,-7.262 c 22.845,-14.871 40.825,-34.985 53.082,-57.96 2.427,-4.549 0.3,-10.192 -4.546,-11.956 l -96.271,-35.039 c -5.297,-1.928 -10.28,3.511 -7.899,8.62 l 43.304,92.867 c 2.185,4.682 8,6.287 12.33,3.468 z m -49.105,-132.476 106.327,38.699 c 4.844,1.763 10.103,-1.191 11.167,-6.236 6.267,-29.683 4.089,-61.386 -7.916,-91.347 -1.798,-4.486 -7.022,-6.517 -11.402,-4.475 l -98.928,46.132 c -7.536,3.514 -7.061,14.384 0.752,17.227 z"
                 id="path2462" />
            </g>
            <g
               id="g2472">
              <path
                 inkscape:connector-curvature="0"
                 style="fill:#394049"
                 d="m 137.689,223.466 c -4.514,0 -8.172,-3.658 -8.172,-8.172 v -4.216 c 0,-4.514 3.658,-8.172 8.172,-8.172 4.514,0 8.172,3.658 8.172,8.172 v 4.216 c 0.001,4.514 -3.657,8.172 -8.172,8.172 z"
                 id="path2466" />
              <path
                 inkscape:connector-curvature="0"
                 style="fill:#394049"
                 d="m 317.402,223.466 c -4.514,0 -8.172,-3.658 -8.172,-8.172 v -4.216 c 0,-4.514 3.658,-8.172 8.172,-8.172 4.514,0 8.172,3.658 8.172,8.172 v 4.216 c 0,4.514 -3.658,8.172 -8.172,8.172 z"
                 id="path2468" />
              <path
                 inkscape:connector-curvature="0"
                 style="fill:#394049"
                 d="m 242.635,245.13 c -5.752,0 -11.025,-2.1 -15.09,-5.571 -4.064,3.473 -9.336,5.571 -15.089,5.571 -12.826,0 -23.261,-10.434 -23.261,-23.261 0,-4.514 3.658,-8.172 8.172,-8.172 4.514,0 8.172,3.658 8.172,8.172 0,3.814 3.103,6.917 6.917,6.917 3.814,0 6.917,-3.103 6.917,-6.917 0,-4.514 3.658,-8.172 8.172,-8.172 4.514,0 8.172,3.658 8.172,8.172 0,3.814 3.103,6.917 6.918,6.917 3.814,0 6.917,-3.103 6.917,-6.917 0,-4.514 3.658,-8.172 8.172,-8.172 4.514,0 8.172,3.658 8.172,8.172 -0.001,12.826 -10.435,23.261 -23.261,23.261 z"
                 id="path2470" />
            </g>
            <g
               id="g2478">
              <path
                 inkscape:connector-curvature="0"
                 style="fill:#e6595a"
                 d="m 150.548,253.741 h -25.716 c -4.514,0 -8.172,-3.658 -8.172,-8.172 0,-4.514 3.658,-8.172 8.172,-8.172 h 25.716 c 4.514,0 8.172,3.658 8.172,8.172 0,4.514 -3.658,8.172 -8.172,8.172 z"
                 id="path2474" />
              <path
                 inkscape:connector-curvature="0"
                 style="fill:#e6595a"
                 d="m 330.26,253.741 h -25.717 c -4.514,0 -8.172,-3.658 -8.172,-8.172 0,-4.514 3.658,-8.172 8.172,-8.172 h 25.717 c 4.513,0 8.172,3.658 8.172,8.172 0,4.514 -3.659,8.172 -8.172,8.172 z"
                 id="path2476" />
            </g>
            <g
               style="opacity:0.07999998"
               id="g2490">
              <circle
                 cx="60.147999"
                 cy="325.85599"
                 r="8.1549997"
                 id="circle2480" />
              <circle
                 cx="103.689"
                 cy="338.34299"
                 r="8.1549997"
                 id="circle2482" />
              <circle
                 cx="72.471001"
                 cy="291.92599"
                 r="8.1549997"
                 id="circle2484" />
              <circle
                 cx="91.997002"
                 cy="371.10699"
                 r="8.1549997"
                 id="circle2486" />
              <circle
                 cx="148.06799"
                 cy="358.41299"
                 r="8.1549997"
                 id="circle2488" />
            </g>
            <g
               id="g2492" />
            <g
               id="g2494" />
            <g
               id="g2496" />
            <g
               id="g2498" />
            <g
               id="g2500" />
            <g
               id="g2502" />
            <g
               id="g2504" />
            <g
               id="g2506" />
            <g
               id="g2508" />
            <g
               id="g2510" />
            <g
               id="g2512" />
            <g
               id="g2514" />
            <g
               id="g2516" />
            <g
               id="g2518" />
            <g
               id="g2520" />
          </g>
          <g
             transform="matrix(0.72812852,0,0,0.72812852,113.81748,9.8466837)"
             id="g4114">
            <path
               inkscape:connector-curvature="0"
               style="fill:#20ab6c"
               d="m 15.348,127.762 c -8.826,0 -15.868,7.435 -15.318,16.244 8.38,134.08 119.779,240.232 255.97,240.232 136.191,0 247.59,-106.152 255.97,-240.231 0.551,-8.809 -6.492,-16.244 -15.318,-16.244 z"
               id="path3993" />
            <path
               inkscape:connector-curvature="0"
               style="fill:#f9efd1"
               d="m 473.604,127.762 c 0,120.18 -97.425,217.604 -217.604,217.604 -120.179,0 -217.604,-97.424 -217.604,-217.604 z"
               id="path3995" />
            <path
               inkscape:connector-curvature="0"
               style="fill:#e3637b"
               d="M 450.768,127.762 C 450.768,235.33 363.567,322.53 256,322.53 148.433,322.53 61.232,235.33 61.232,127.762 Z"
               id="path3997" />
            <g
               id="g4023">
              <circle
                 style="fill:#ffffff"
                 cx="380.54999"
                 cy="187.75999"
                 r="7.3730001"
                 id="circle3999" />
              <circle
                 style="fill:#ffffff"
                 cx="409.82999"
                 cy="173.91"
                 r="7.3730001"
                 id="circle4001" />
              <circle
                 style="fill:#ffffff"
                 cx="391.22"
                 cy="211.89"
                 r="7.3730001"
                 id="circle4003" />
              <circle
                 style="fill:#ffffff"
                 cx="365.81"
                 cy="252.34"
                 r="7.3730001"
                 id="circle4005" />
              <circle
                 style="fill:#ffffff"
                 cx="107.05"
                 cy="177.08"
                 r="7.3730001"
                 id="circle4007" />
              <circle
                 style="fill:#ffffff"
                 cx="127.28"
                 cy="214.11"
                 r="7.3730001"
                 id="circle4009" />
              <circle
                 style="fill:#ffffff"
                 cx="32.426998"
                 cy="207.88"
                 r="7.3730001"
                 id="circle4011" />
              <circle
                 style="fill:#ffffff"
                 cx="153.36"
                 cy="159.78999"
                 r="7.3730001"
                 id="circle4013" />
              <circle
                 style="fill:#ffffff"
                 cx="87.730003"
                 cy="152.41"
                 r="7.3730001"
                 id="circle4015" />
              <circle
                 style="fill:#ffffff"
                 cx="193.11"
                 cy="277.98999"
                 r="7.3730001"
                 id="circle4017" />
              <circle
                 style="fill:#ffffff"
                 cx="119.54"
                 cy="320.03"
                 r="7.3730001"
                 id="circle4019" />
              <circle
                 style="fill:#ffffff"
                 cx="452.54999"
                 cy="258.19"
                 r="7.3730001"
                 id="circle4021" />
            </g>
            <g
               id="g4029">
              <path
                 inkscape:connector-curvature="0"
                 style="fill:#394049"
                 d="m 192.989,200.606 c -4.142,0 -7.5,-3.357 -7.5,-7.5 v -11.077 c 0,-4.143 3.358,-7.5 7.5,-7.5 4.142,0 7.5,3.357 7.5,7.5 v 11.077 c 0,4.143 -3.358,7.5 -7.5,7.5 z"
                 id="path4025" />
              <path
                 inkscape:connector-curvature="0"
                 style="fill:#394049"
                 d="m 319.01,200.606 c -4.142,0 -7.5,-3.357 -7.5,-7.5 v -11.077 c 0,-4.143 3.358,-7.5 7.5,-7.5 4.142,0 7.5,3.357 7.5,7.5 v 11.077 c 0,4.143 -3.358,7.5 -7.5,7.5 z"
                 id="path4027" />
            </g>
            <g
               id="g4035">
              <path
                 inkscape:connector-curvature="0"
                 style="fill:#ffffff"
                 d="m 201.705,220.826 h -17.43 c -4.142,0 -7.5,-3.357 -7.5,-7.5 0,-4.143 3.358,-7.5 7.5,-7.5 h 17.43 c 4.142,0 7.5,3.357 7.5,7.5 0,4.143 -3.358,7.5 -7.5,7.5 z"
                 id="path4031" />
              <path
                 inkscape:connector-curvature="0"
                 style="fill:#ffffff"
                 d="m 327.726,220.826 h -17.43 c -4.142,0 -7.5,-3.357 -7.5,-7.5 0,-4.143 3.358,-7.5 7.5,-7.5 h 17.43 c 4.142,0 7.5,3.357 7.5,7.5 0,4.143 -3.358,7.5 -7.5,7.5 z"
                 id="path4033" />
            </g>
            <path
               inkscape:connector-curvature="0"
               style="fill:#394049"
               d="m 266.176,210.782 c -3.785,0 -7.297,-1.196 -10.176,-3.23 -2.879,2.034 -6.391,3.23 -10.176,3.23 -9.747,0 -17.676,-7.93 -17.676,-17.676 0,-4.143 3.358,-7.5 7.5,-7.5 4.142,0 7.5,3.357 7.5,7.5 0,1.476 1.2,2.676 2.676,2.676 1.476,0 2.676,-1.2 2.676,-2.676 0,-4.143 3.358,-7.5 7.5,-7.5 4.142,0 7.5,3.357 7.5,7.5 0,1.476 1.2,2.676 2.676,2.676 1.476,0 2.676,-1.2 2.676,-2.676 0,-4.143 3.358,-7.5 7.5,-7.5 4.142,0 7.5,3.357 7.5,7.5 0,9.746 -7.93,17.676 -17.676,17.676 z"
               id="path4037" />
            <g
               id="g4039" />
            <g
               id="g4041" />
            <g
               id="g4043" />
            <g
               id="g4045" />
            <g
               id="g4047" />
            <g
               id="g4049" />
            <g
               id="g4051" />
            <g
               id="g4053" />
            <g
               id="g4055" />
            <g
               id="g4057" />
            <g
               id="g4059" />
            <g
               id="g4061" />
            <g
               id="g4063" />
            <g
               id="g4065" />
            <g
               id="g4067" />
          </g>
        </g>
      </g>
    </g>
  </g>
</svg>
