<svg id="Icons" height="512" viewBox="0 0 50 50" width="512" xmlns="http://www.w3.org/2000/svg"><path d="m49 9.22v31.56a8.21 8.21 0 0 1 -8.23 8.22h-31.57a8.24 8.24 0 0 1 -4-1 7.51 7.51 0 0 1 -1.5-1.11 8.2 8.2 0 0 1 -2.7-6.11v-31.56a8.22 8.22 0 0 1 8.2-8.22h31.57a8.24 8.24 0 0 1 4 1 7.51 7.51 0 0 1 1.52 1.09 8.19 8.19 0 0 1 2.71 6.13z" fill="#62667c"/><g fill="#575b6d"><circle cx="6.94" cy="2.78" r=".97"/><circle cx="11.21" cy="2.78" r=".97"/><circle cx="15.48" cy="2.78" r=".97"/><circle cx="19.74" cy="2.78" r=".97"/><circle cx="24.01" cy="2.78" r=".97"/><circle cx="28.28" cy="2.78" r=".97"/><circle cx="32.55" cy="2.78" r=".97"/><circle cx="36.82" cy="2.78" r=".97"/><circle cx="41.09" cy="2.78" r=".97"/><path d="m46.27 3.11a1 1 0 0 1 -.91.63 1 1 0 0 1 -1-1 1 1 0 0 1 .39-.74 7.51 7.51 0 0 1 1.52 1.11z"/><circle cx="4.61" cy="6.82" r=".97"/><circle cx="8.88" cy="6.82" r=".97"/><circle cx="13.15" cy="6.82" r=".97"/><circle cx="17.42" cy="6.82" r=".97"/><circle cx="21.69" cy="6.82" r=".97"/><circle cx="25.96" cy="6.82" r=".97"/><circle cx="30.23" cy="6.82" r=".97"/><circle cx="34.49" cy="6.82" r=".97"/><circle cx="38.76" cy="6.82" r=".97"/><circle cx="43.03" cy="6.82" r=".97"/><circle cx="47.3" cy="6.82" r=".97"/><circle cx="2.67" cy="10.86" r=".97"/><circle cx="6.94" cy="10.86" r=".97"/><circle cx="11.21" cy="10.86" r=".97"/><circle cx="15.48" cy="10.86" r=".97"/><circle cx="19.74" cy="10.86" r=".97"/><circle cx="24.01" cy="10.86" r=".97"/><circle cx="28.28" cy="10.86" r=".97"/><circle cx="32.55" cy="10.86" r=".97"/><circle cx="36.82" cy="10.86" r=".97"/><circle cx="41.09" cy="10.86" r=".97"/><circle cx="45.36" cy="10.86" r=".97"/><circle cx="4.61" cy="14.9" r=".97"/><circle cx="8.88" cy="14.9" r=".97"/><circle cx="13.15" cy="14.9" r=".97"/><circle cx="17.42" cy="14.9" r=".97"/><circle cx="21.69" cy="14.9" r=".97"/><circle cx="25.96" cy="14.9" r=".97"/><circle cx="30.23" cy="14.9" r=".97"/><circle cx="34.49" cy="14.9" r=".97"/><circle cx="38.76" cy="14.9" r=".97"/><circle cx="43.03" cy="14.9" r=".97"/><circle cx="47.3" cy="14.9" r=".97"/><circle cx="2.67" cy="18.94" r=".97"/><circle cx="6.94" cy="18.94" r=".97"/><circle cx="11.21" cy="18.94" r=".97"/><circle cx="15.48" cy="18.94" r=".97"/><circle cx="19.74" cy="18.94" r=".97"/><circle cx="24.01" cy="18.94" r=".97"/><circle cx="28.28" cy="18.94" r=".97"/><circle cx="32.55" cy="18.94" r=".97"/><circle cx="36.82" cy="18.94" r=".97"/><circle cx="41.09" cy="18.94" r=".97"/><circle cx="45.36" cy="18.94" r=".97"/><circle cx="4.61" cy="22.98" r=".97"/><circle cx="8.88" cy="22.98" r=".97"/><circle cx="13.15" cy="22.98" r=".97"/><circle cx="17.42" cy="22.98" r=".97"/><circle cx="21.69" cy="22.98" r=".97"/><circle cx="25.96" cy="22.98" r=".97"/><circle cx="30.23" cy="22.98" r=".97"/><circle cx="34.49" cy="22.98" r=".97"/><circle cx="38.76" cy="22.98" r=".97"/><circle cx="43.03" cy="22.98" r=".97"/><circle cx="47.3" cy="22.98" r=".97"/><circle cx="2.67" cy="27.02" r=".97"/><circle cx="6.94" cy="27.02" r=".97"/><circle cx="11.21" cy="27.02" r=".97"/><circle cx="15.48" cy="27.02" r=".97"/><circle cx="19.74" cy="27.02" r=".97"/><circle cx="24.01" cy="27.02" r=".97"/><circle cx="28.28" cy="27.02" r=".97"/><circle cx="32.55" cy="27.02" r=".97"/><circle cx="36.82" cy="27.02" r=".97"/><circle cx="41.09" cy="27.02" r=".97"/><circle cx="45.36" cy="27.02" r=".97"/><circle cx="4.61" cy="31.06" r=".97"/><circle cx="8.88" cy="31.06" r=".97"/><circle cx="13.15" cy="31.06" r=".97"/><circle cx="17.42" cy="31.06" r=".97"/><circle cx="21.69" cy="31.06" r=".97"/><circle cx="25.96" cy="31.06" r=".97"/><circle cx="30.23" cy="31.06" r=".97"/><circle cx="34.49" cy="31.06" r=".97"/><circle cx="38.76" cy="31.06" r=".97"/><circle cx="43.03" cy="31.06" r=".97"/><circle cx="47.3" cy="31.06" r=".97"/><circle cx="2.67" cy="35.1" r=".97"/><circle cx="6.94" cy="35.1" r=".97"/><circle cx="11.21" cy="35.1" r=".97"/><circle cx="15.48" cy="35.1" r=".97"/><circle cx="19.74" cy="35.1" r=".97"/><circle cx="24.01" cy="35.1" r=".97"/><circle cx="28.28" cy="35.1" r=".97"/><circle cx="32.55" cy="35.1" r=".97"/><circle cx="36.82" cy="35.1" r=".97"/><circle cx="41.09" cy="35.1" r=".97"/><circle cx="45.36" cy="35.1" r=".97"/><circle cx="4.61" cy="39.14" r=".97"/><circle cx="8.88" cy="39.14" r=".97"/><circle cx="13.15" cy="39.14" r=".97"/><circle cx="17.42" cy="39.14" r=".97"/><circle cx="21.69" cy="39.14" r=".97"/><circle cx="25.96" cy="39.14" r=".97"/><circle cx="30.23" cy="39.14" r=".97"/><circle cx="34.49" cy="39.14" r=".97"/><circle cx="38.76" cy="39.14" r=".97"/><circle cx="43.03" cy="39.14" r=".97"/><circle cx="47.3" cy="39.14" r=".97"/><circle cx="2.67" cy="43.18" r=".97"/><circle cx="6.94" cy="43.18" r=".97"/><circle cx="11.21" cy="43.18" r=".97"/><circle cx="15.48" cy="43.18" r=".97"/><circle cx="19.74" cy="43.18" r=".97"/><circle cx="24.01" cy="43.18" r=".97"/><circle cx="28.28" cy="43.18" r=".97"/><circle cx="32.55" cy="43.18" r=".97"/><circle cx="36.82" cy="43.18" r=".97"/><circle cx="41.09" cy="43.18" r=".97"/><circle cx="45.36" cy="43.18" r=".97"/><path d="m5.58 47.22a1 1 0 0 1 -.36.76 7.51 7.51 0 0 1 -1.52-1.09 1 1 0 0 1 .91-.63 1 1 0 0 1 .97.96z"/><circle cx="8.88" cy="47.22" r=".97"/><circle cx="13.15" cy="47.22" r=".97"/><circle cx="17.42" cy="47.22" r=".97"/><circle cx="21.69" cy="47.22" r=".97"/><circle cx="25.96" cy="47.22" r=".97"/><circle cx="30.23" cy="47.22" r=".97"/><circle cx="34.49" cy="47.22" r=".97"/><circle cx="38.76" cy="47.22" r=".97"/><circle cx="43.03" cy="47.22" r=".97"/></g><circle cx="24.98" cy="25" fill="#e4e7e7" r="16.93"/><circle cx="24.98" cy="25" fill="#ccd0d2" r="13.93"/><circle cx="24.98" cy="25" fill="#2b414d" r="13.14"/><circle cx="24.98" cy="25" fill="#475f6c" r="11"/><circle cx="24.98" cy="25" fill="#b1dcc1" r="8.78"/><ellipse cx="21.27" cy="20.37" fill="#eeefee" rx="2.29" ry="1.23" transform="matrix(.756 -.655 .655 .756 -8.14 18.91)"/></svg>