<?xml version="1.0" encoding="UTF-8" standalone="no"?>
<!-- Generator: Adobe Illustrator 19.0.0, SVG Export Plug-In . SVG Version: 6.00 Build 0)  -->

<svg
   xmlns:dc="http://purl.org/dc/elements/1.1/"
   xmlns:cc="http://creativecommons.org/ns#"
   xmlns:rdf="http://www.w3.org/1999/02/22-rdf-syntax-ns#"
   xmlns:svg="http://www.w3.org/2000/svg"
   xmlns="http://www.w3.org/2000/svg"
   xmlns:sodipodi="http://sodipodi.sourceforge.net/DTD/sodipodi-0.dtd"
   xmlns:inkscape="http://www.inkscape.org/namespaces/inkscape"
   version="1.1"
   id="Layer_1"
   x="0px"
   y="0px"
   viewBox="0 0 512.001 512.001"
   style="enable-background:new 0 0 512.001 512.001;"
   xml:space="preserve"
   sodipodi:docname="exit.svg"
   inkscape:version="0.92.3 (2405546, 2018-03-11)"><metadata
   id="metadata1217"><rdf:RDF><cc:Work
       rdf:about=""><dc:format>image/svg+xml</dc:format><dc:type
         rdf:resource="http://purl.org/dc/dcmitype/StillImage" /></cc:Work></rdf:RDF></metadata><defs
   id="defs1215" /><sodipodi:namedview
   pagecolor="#ffffff"
   bordercolor="#666666"
   borderopacity="1"
   objecttolerance="10"
   gridtolerance="10"
   guidetolerance="10"
   inkscape:pageopacity="0"
   inkscape:pageshadow="2"
   inkscape:window-width="1920"
   inkscape:window-height="1017"
   id="namedview1213"
   showgrid="false"
   inkscape:zoom="0.92187324"
   inkscape:cx="170.02275"
   inkscape:cy="317.82215"
   inkscape:window-x="-8"
   inkscape:window-y="-8"
   inkscape:window-maximized="1"
   inkscape:current-layer="Layer_1" />



<g
   id="g1182">
</g>
<g
   id="g1184">
</g>
<g
   id="g1186">
</g>
<g
   id="g1188">
</g>
<g
   id="g1190">
</g>
<g
   id="g1192">
</g>
<g
   id="g1194">
</g>
<g
   id="g1196">
</g>
<g
   id="g1198">
</g>
<g
   id="g1200">
</g>
<g
   id="g1202">
</g>
<g
   id="g1204">
</g>
<g
   id="g1206">
</g>
<g
   id="g1208">
</g>
<g
   id="g1210">
</g>
<g
   id="g1297"><g
     transform="translate(0,4.9062636e-4)"
     id="g1104"><path
       inkscape:connector-curvature="0"
       style="fill:#00c0f1"
       d="M 256,0 C 115.3,0 0,115.3 0,256 0,396.7 115.3,512 256,512 396.7,512 512,396.7 512,256 512,115.3 396.7,0 256,0 Z"
       id="path174" /></g><path
     inkscape:connector-curvature="0"
     style="fill:#009ae4"
     d="m 512,256.00049 c 0,140.7 -115.3,256 -256,256 V 4.9062636e-4 C 396.7,4.9062636e-4 512,115.30049 512,256.00049 Z"
     id="path180" /></g><g
   transform="translate(481.62735,42.304658)"
   id="g1180"><path
     style="fill:#f4f6f9"
     d="m -197.34804,298.53383 c -3.908,0 -7.07,3.166 -7.07,7.07 v 49.489 h -169.678 V 72.296835 h 169.678 v 49.488995 c 0,3.904 3.163,7.07 7.07,7.07 3.908,0 7.07,-3.166 7.07,-7.07 V 65.226835 c 0,-3.904 -3.162,-7.07 -7.07,-7.07 h -183.818 c -3.908,0 -7.07,3.166 -7.07,7.07 V 362.16483 c 0,3.904 3.163,7.07 7.07,7.07 h 183.819 c 3.908,0 7.07,-3.166 7.07,-7.07 v -56.56 c -0.001,-3.906 -3.163,-7.071 -7.071,-7.071 z"
     id="path1176"
     inkscape:connector-curvature="0" /><path
     style="fill:#f4f6f9"
     d="m -65.090038,208.69683 -70.700002,-70.7 c -2.762,-2.762 -7.235,-2.762 -9.997,0 -2.762,2.762 -2.762,7.235 0,9.997 l 58.630002,58.63 H -303.39704 c -3.908,0 -7.07,3.166 -7.07,7.07 0,3.904 3.163,7.07 7.07,7.07 h 216.240002 l -58.630002,58.63 c -2.762,2.762 -2.762,7.235 0,9.997 1.381,1.381 3.189,2.071 4.998,2.071 1.809,0 3.618,-0.69 4.998,-2.071 l 70.700002,-70.7 c 2.763,-2.759 2.763,-7.233 10e-4,-9.994 z"
     id="path1178"
     inkscape:connector-curvature="0" /></g></svg>