<svg height="512pt" viewBox="0 -13 512 512" width="512pt" xmlns="http://www.w3.org/2000/svg"><path d="m400 64h-48.789062l-21.675782-43.371094c-6.355468-12.714844-19.15625-20.628906-33.386718-20.628906h-80.296876c-14.230468 0-27.03125 7.914062-33.386718 20.628906l-21.675782 43.371094h-48.789062c-26.476562 0-48 21.523438-48 48v160c0 26.476562 21.523438 48 48 48h288c26.476562 0 48-21.523438 48-48v-160c0-26.476562-21.523438-48-48-48zm0 0" fill="#607d8b"/><path d="m330.667969 181.332031c0 41.238281-33.429688 74.667969-74.667969 74.667969s-74.667969-33.429688-74.667969-74.667969c0-41.234375 33.429688-74.664062 74.667969-74.664062s74.667969 33.429687 74.667969 74.664062zm0 0" fill="#fafafa"/><g fill="#00bcd4"><path d="m218.6875 435.5c-.617188 0-1.257812-.023438-1.875-.085938-127.660156-11.179687-216.8125-67.414062-216.8125-136.746093 0-21.398438 3.476562-37.570313 21.289062-56.898438 7.980469-8.660156 21.464844-9.234375 30.144532-1.257812 8.664062 7.980469 9.238281 21.484375 1.257812 30.144531-8.765625 9.515625-10.023437 14.527344-10.023437 28.011719 0 44.117187 78.121093 85.503906 177.855469 94.226562 11.734374 1.027344 20.4375 11.371094 19.390624 23.105469-.960937 11.113281-10.28125 19.5-21.226562 19.5zm0 0"/><path d="m303.660156 434.476562c-10.730468 0-19.96875-8.085937-21.183594-19.011718-1.28125-11.710938 7.167969-22.25 18.878907-23.550782 100.480469-11.027343 167.976562-54.378906 167.976562-87.914062 0-16.789062-2.921875-22.039062-12.136719-36.074219-6.464843-9.855469-3.710937-23.082031 6.121094-29.546875 9.878906-6.464844 23.105469-3.710937 29.546875 6.121094 11.90625 18.15625 19.136719 31.210938 19.136719 59.5 0 62.398438-86.632812 117.207031-205.972656 130.347656-.789063.085938-1.578125.128906-2.367188.128906zm0 0"/><path d="m256.640625 404.691406-53.332031-53.332031c-4.566406-4.566406-11.457032-5.929687-17.429688-3.476563-5.976562 2.472657-9.878906 8.320313-9.878906 14.785157v106.664062c0 6.464844 3.902344 12.3125 9.878906 14.785157 1.984375.8125 4.050782 1.214843 6.121094 1.214843 4.160156 0 8.257812-1.621093 11.308594-4.691406l53.332031-53.332031c6.25-6.253906 6.25-16.363282 0-22.617188zm0 0"/></g></svg>