<?xml version="1.0" encoding="UTF-8" standalone="no"?>
<!-- Generator: Adobe Illustrator 19.0.0, SVG Export Plug-In . SVG Version: 6.00 Build 0)  -->

<svg
   xmlns:dc="http://purl.org/dc/elements/1.1/"
   xmlns:cc="http://creativecommons.org/ns#"
   xmlns:rdf="http://www.w3.org/1999/02/22-rdf-syntax-ns#"
   xmlns:svg="http://www.w3.org/2000/svg"
   xmlns="http://www.w3.org/2000/svg"
   xmlns:sodipodi="http://sodipodi.sourceforge.net/DTD/sodipodi-0.dtd"
   xmlns:inkscape="http://www.inkscape.org/namespaces/inkscape"
   version="1.1"
   id="Layer_1"
   x="0px"
   y="0px"
   viewBox="0 0 512 512"
   style="enable-background:new 0 0 512 512;"
   xml:space="preserve"
   sodipodi:docname="information.svg"
   inkscape:version="0.92.3 (2405546, 2018-03-11)"><metadata
   id="metadata114"><rdf:RDF><cc:Work
       rdf:about=""><dc:format>image/svg+xml</dc:format><dc:type
         rdf:resource="http://purl.org/dc/dcmitype/StillImage" /></cc:Work></rdf:RDF></metadata><defs
   id="defs112">
		
	</defs><sodipodi:namedview
   pagecolor="#ffffff"
   bordercolor="#666666"
   borderopacity="1"
   objecttolerance="10"
   gridtolerance="10"
   guidetolerance="10"
   inkscape:pageopacity="0"
   inkscape:pageshadow="2"
   inkscape:window-width="1920"
   inkscape:window-height="1017"
   id="namedview110"
   showgrid="false"
   inkscape:zoom="0.5855728"
   inkscape:cx="108.67154"
   inkscape:cy="410.27827"
   inkscape:window-x="-8"
   inkscape:window-y="-8"
   inkscape:window-maximized="1"
   inkscape:current-layer="Layer_1" />






<g
   id="g163" />

<g
   id="g79">
</g>
<g
   id="g81">
</g>
<g
   id="g83">
</g>
<g
   id="g85">
</g>
<g
   id="g87">
</g>
<g
   id="g89">
</g>
<g
   id="g91">
</g>
<g
   id="g93">
</g>
<g
   id="g95">
</g>
<g
   id="g97">
</g>
<g
   id="g99">
</g>
<g
   id="g101">
</g>
<g
   id="g103">
</g>
<g
   id="g105">
</g>
<g
   id="g107">
</g>
<g
   id="g194">
	<g
   id="g218"><g
     id="g176">
			<path
   id="path174"
   d="M 256,0 C 115.3,0 0,115.3 0,256 0,396.7 115.3,512 256,512 396.7,512 512,396.7 512,256 512,115.3 396.7,0 256,0 Z"
   style="fill:#00c0f1"
   inkscape:connector-curvature="0" />
		</g></g>
	<path
   id="path180"
   d="M 512,256 C 512,396.7 396.7,512 256,512 V 0 c 140.7,0 256,115.3 256,256 z"
   style="fill:#009ae4"
   inkscape:connector-curvature="0" />
	
	
	
	
</g><g
   id="g172"
   transform="translate(71.72464,-15.370068)"><circle
     style="fill:#ffffff"
     cx="184.27536"
     cy="137.80457"
     r="33.390999"
     id="circle71" /><path
     inkscape:connector-curvature="0"
     style="fill:#edf0f2"
     d="m 217.66636,137.80457 c 0,-18.442 -14.949,-33.391 -33.391,-33.391 v 66.783 c 18.442,-0.001 33.391,-14.95 33.391,-33.392 z"
     id="path73" /><path
     inkscape:connector-curvature="0"
     style="fill:#ffffff"
     d="m 184.27536,438.32657 v 0 c -18.442,0 -33.391,-14.949 -33.391,-33.391 v -166.957 c 0,-18.442 14.949,-33.391 33.391,-33.391 v 0 c 18.442,0 33.391,14.949 33.391,33.391 v 166.956 c 0,18.442 -14.949,33.392 -33.391,33.392 z"
     id="path75" /><path
     inkscape:connector-curvature="0"
     id="path77"
     d="m 217.66636,404.93457 v -166.956 c 0,-18.442 -14.949,-33.391 -33.391,-33.391 v 233.739 c 18.442,0 33.391,-14.95 33.391,-33.392 z"
     style="fill:#edf0f2" /></g></svg>