<?xml version="1.0" encoding="UTF-8" standalone="no"?>
<svg
   xmlns:dc="http://purl.org/dc/elements/1.1/"
   xmlns:cc="http://creativecommons.org/ns#"
   xmlns:rdf="http://www.w3.org/1999/02/22-rdf-syntax-ns#"
   xmlns:svg="http://www.w3.org/2000/svg"
   xmlns="http://www.w3.org/2000/svg"
   xmlns:sodipodi="http://sodipodi.sourceforge.net/DTD/sodipodi-0.dtd"
   xmlns:inkscape="http://www.inkscape.org/namespaces/inkscape"
   id="color"
   enable-background="new 0 0 24 24"
   height="512"
   viewBox="0 0 24 24"
   width="512"
   version="1.1"
   sodipodi:docname="previous.svg"
   inkscape:version="0.92.3 (2405546, 2018-03-11)">
  <metadata
     id="metadata2499">
    <rdf:RDF>
      <cc:Work
         rdf:about="">
        <dc:format>image/svg+xml</dc:format>
        <dc:type
           rdf:resource="http://purl.org/dc/dcmitype/StillImage" />
      </cc:Work>
    </rdf:RDF>
  </metadata>
  <defs
     id="defs2497" />
  <sodipodi:namedview
     pagecolor="#ffffff"
     bordercolor="#666666"
     borderopacity="1"
     objecttolerance="10"
     gridtolerance="10"
     guidetolerance="10"
     inkscape:pageopacity="0"
     inkscape:pageshadow="2"
     inkscape:window-width="1920"
     inkscape:window-height="1017"
     id="namedview2495"
     showgrid="false"
     inkscape:zoom="0.65186406"
     inkscape:cx="509.46345"
     inkscape:cy="97.519976"
     inkscape:window-x="-8"
     inkscape:window-y="-8"
     inkscape:window-maximized="1"
     inkscape:current-layer="color" />
  <path
     d="m12 0c-6.617 0-12 5.383-12 12s5.383 12 12 12 12-5.383 12-12-5.383-12-12-12z"
     fill="#2196f3"
     id="path2486"
     style="fill:#009ae4;fill-opacity:1" />
  <path
     d="m12 0c-6.617 0-12 5.383-12 12s5.383 12 12 12z"
     fill="#1d83d4"
     id="path2488"
     style="fill:#00c0f1;fill-opacity:1" />
  <path
     d="m10.73 18.791-6.5-6.25c-.147-.142-.23-.337-.23-.541s.083-.399.23-.541l6.5-6.25c.475-.458 1.27-.119 1.27.541v3.25h5.75c.689 0 1.25.561 1.25 1.25v3.5c0 .689-.561 1.25-1.25 1.25h-5.75v3.25c0 .664-.798.995-1.27.541z"
     fill="#fff"
     id="path2490" />
  <path
     d="m19 12h-15c0 .204.083.399.23.541l6.5 6.25c.15.145.334.21.514.21.385-.001.756-.299.756-.751v-3.25h5.75c.689 0 1.25-.561 1.25-1.25z"
     fill="#dedede"
     id="path2492"
     style="fill:#edf0f2;fill-opacity:1" />
</svg>
