<?xml version="1.0" encoding="iso-8859-1"?>
<!-- Generator: Adobe Illustrator 21.0.0, SVG Export Plug-In . SVG Version: 6.00 Build 0)  -->
<svg xmlns="http://www.w3.org/2000/svg" xmlns:xlink="http://www.w3.org/1999/xlink" version="1.1" id="Capa_1" x="0px" y="0px" viewBox="0 0 512 512" style="enable-background:new 0 0 512 512;" xml:space="preserve" width="512" height="512">
<g>
	<g>
		<g>
			<path style="fill:#00C0F1;" d="M256,0C115.3,0,0,115.3,0,256s115.3,256,256,256s256-115.3,256-256S396.7,0,256,0z"/>
		</g>
	</g>
	<path style="fill:#009AE4;" d="M512,256c0,140.7-115.3,256-256,256V0C396.7,0,512,115.3,512,256z"/>
	<g>
		<path style="fill:#ECECF1;" d="M256,61.9c-67.2,0-120,52.5-120,119.1c0,24.9,20.1,45,45,45s45-20.1,45-45    c0-16.8,12.9-29.7,30-29.7c16.8,0,30,13.2,30,29.7c0,17.75-9,21.71-30,35.7c-15.3,10.5-33.6,26.1-41.7,58.2    c-7,29.28,15.32,56.03,41.7,56.1h0.1c20.1,0,40.1-13.8,45.2-33.3c0.6-1.8,1.5-6,9.9-10.2C351.1,266.8,376,226,376,181    C376,114.4,323.2,61.9,256,61.9z"/>
	</g>
	<g>
		<path style="fill:#ECECF1;" d="M256,361c-24.901,0-45,20.099-45,45s20.099,45,45,45s45-20.099,45-45S280.901,361,256,361z"/>
	</g>
	<path style="fill:#D3D3D8;" d="M301,406c0,24.901-20.099,45-45,45v-90C280.901,361,301,381.099,301,406z"/>
	<path style="fill:#D3D3D8;" d="M376,181c0,45-24.9,85.8-64.8,106.5c-8.4,4.2-9.3,8.4-9.9,10.2c-5.1,19.5-25.1,33.3-45.2,33.3H256   V216.7c21-13.99,30-17.95,30-35.7c0-16.5-13.2-29.7-30-29.7V61.9C323.2,61.9,376,114.4,376,181z"/>
</g>















</svg>
