<?xml version="1.0" encoding="UTF-8" standalone="no"?>
<!-- Generator: Adobe Illustrator 21.0.0, SVG Export Plug-In . SVG Version: 6.00 Build 0)  -->

<svg
   xmlns:dc="http://purl.org/dc/elements/1.1/"
   xmlns:cc="http://creativecommons.org/ns#"
   xmlns:rdf="http://www.w3.org/1999/02/22-rdf-syntax-ns#"
   xmlns:svg="http://www.w3.org/2000/svg"
   xmlns="http://www.w3.org/2000/svg"
   xmlns:sodipodi="http://sodipodi.sourceforge.net/DTD/sodipodi-0.dtd"
   xmlns:inkscape="http://www.inkscape.org/namespaces/inkscape"
   version="1.1"
   id="Capa_1"
   x="0px"
   y="0px"
   viewBox="0 0 512 512"
   style="enable-background:new 0 0 512 512;"
   xml:space="preserve"
   width="512"
   height="512"
   sodipodi:docname="question.svg"
   inkscape:version="0.92.3 (2405546, 2018-03-11)"><metadata
   id="metadata66"><rdf:RDF><cc:Work
       rdf:about=""><dc:format>image/svg+xml</dc:format><dc:type
         rdf:resource="http://purl.org/dc/dcmitype/StillImage" /></cc:Work></rdf:RDF></metadata><defs
   id="defs64" /><sodipodi:namedview
   pagecolor="#ffffff"
   bordercolor="#666666"
   borderopacity="1"
   objecttolerance="10"
   gridtolerance="10"
   guidetolerance="10"
   inkscape:pageopacity="0"
   inkscape:pageshadow="2"
   inkscape:window-width="1920"
   inkscape:window-height="1017"
   id="namedview62"
   showgrid="false"
   inkscape:zoom="0.828125"
   inkscape:cx="327.47199"
   inkscape:cy="238.04753"
   inkscape:window-x="-8"
   inkscape:window-y="-8"
   inkscape:window-maximized="1"
   inkscape:current-layer="Capa_1" />
<g
   id="g59">
	<g
   id="g43">
		<g
   id="g41">
			<path
   style="fill:#00C0F1;"
   d="M256,0C115.3,0,0,115.3,0,256s115.3,256,256,256s256-115.3,256-256S396.7,0,256,0z"
   id="path39" />
		</g>
	</g>
	<path
   style="fill:#009AE4;"
   d="M512,256c0,140.7-115.3,256-256,256V0C396.7,0,512,115.3,512,256z"
   id="path45" />
	<g
   id="g49">
		<path
   style="fill:#ffffff;fill-opacity:1"
   d="M256,61.9c-67.2,0-120,52.5-120,119.1c0,24.9,20.1,45,45,45s45-20.1,45-45    c0-16.8,12.9-29.7,30-29.7c16.8,0,30,13.2,30,29.7c0,17.75-9,21.71-30,35.7c-15.3,10.5-33.6,26.1-41.7,58.2    c-7,29.28,15.32,56.03,41.7,56.1h0.1c20.1,0,40.1-13.8,45.2-33.3c0.6-1.8,1.5-6,9.9-10.2C351.1,266.8,376,226,376,181    C376,114.4,323.2,61.9,256,61.9z"
   id="path47" />
	</g>
	<g
   id="g53">
		<path
   style="fill:#ffffff;fill-opacity:1"
   d="M256,361c-24.901,0-45,20.099-45,45s20.099,45,45,45s45-20.099,45-45S280.901,361,256,361z"
   id="path51" />
	</g>
	<path
   style="fill:#edf0f2;fill-opacity:1"
   d="M301,406c0,24.901-20.099,45-45,45v-90C280.901,361,301,381.099,301,406z"
   id="path55" />
	<path
   style="fill:#edf0f2;fill-opacity:1"
   d="M376,181c0,45-24.9,85.8-64.8,106.5c-8.4,4.2-9.3,8.4-9.9,10.2c-5.1,19.5-25.1,33.3-45.2,33.3H256   V216.7c21-13.99,30-17.95,30-35.7c0-16.5-13.2-29.7-30-29.7V61.9C323.2,61.9,376,114.4,376,181z"
   id="path57" />
</g>















</svg>