<svg id="color" enable-background="new 0 0 24 24" height="512" viewBox="0 0 24 24" width="512" xmlns="http://www.w3.org/2000/svg"><path d="m17 0h-10c-1.654 0-3 1.346-3 3v18c0 1.654 1.346 3 3 3h10c1.654 0 3-1.346 3-3v-18c0-1.654-1.346-3-3-3z" fill="#607d8b"/><path d="m7 2h10c.551 0 1 .448 1 1v16h-12v-16c0-.552.449-1 1-1z" fill="#fff"/><g fill="#2196f3"><path d="m7.75 10c-.414 0-.75-.336-.75-.75v-1.5c0-.965.785-1.75 1.75-1.75h1.5c.414 0 .75.336.75.75s-.336.75-.75.75h-1.5c-.138 0-.25.112-.25.25v1.5c0 .414-.336.75-.75.75z"/><path d="m16.25 10c-.414 0-.75-.336-.75-.75v-1.5c0-.138-.112-.25-.25-.25h-1.5c-.414 0-.75-.336-.75-.75s.336-.75.75-.75h1.5c.965 0 1.75.785 1.75 1.75v1.5c0 .414-.336.75-.75.75z"/><path d="m10.25 16h-1.5c-.965 0-1.75-.785-1.75-1.75v-1.5c0-.414.336-.75.75-.75s.75.336.75.75v1.5c0 .138.112.25.25.25h1.5c.414 0 .75.336.75.75s-.336.75-.75.75z"/><path d="m15.25 16h-1.5c-.414 0-.75-.336-.75-.75s.336-.75.75-.75h1.5c.138 0 .25-.112.25-.25v-1.5c0-.414.336-.75.75-.75s.75.336.75.75v1.5c0 .965-.785 1.75-1.75 1.75z"/></g><path d="m12 0h-5c-1.654 0-3 1.346-3 3v18c0 1.654 1.346 3 3 3h5v-5h-6v-16c0-.552.449-1 1-1h5z" fill="#546d79"/><path d="m8.75 16c-.965 0-1.75-.785-1.75-1.75v-1.5c0-.414.336-.75.75-.75s.75.336.75.75v1.5c0 .138.112.25.25.25h1.5c.414 0 .75.336.75.75s-.336.75-.75.75zm-1-6c-.414 0-.75-.336-.75-.75v-1.5c0-.965.785-1.75 1.75-1.75h1.5c.414 0 .75.336.75.75s-.336.75-.75.75h-1.5c-.138 0-.25.112-.25.25v1.5c0 .414-.336.75-.75.75zm4.25-8h-5c-.551 0-1 .448-1 1v16h6z" fill="#dedede"/><path d="m10.25 6h-1.5c-.965 0-1.75.785-1.75 1.75v1.5c0 .414.336.75.75.75s.75-.336.75-.75v-1.5c0-.138.112-.25.25-.25h1.5c.414 0 .75-.336.75-.75s-.336-.75-.75-.75z" fill="#1d83d4"/><path d="m7.75 12c-.414 0-.75.336-.75.75v1.5c0 .965.785 1.75 1.75 1.75h1.5c.414 0 .75-.336.75-.75s-.336-.75-.75-.75h-1.5c-.138 0-.25-.112-.25-.25v-1.5c0-.414-.336-.75-.75-.75z" fill="#1d83d4"/></svg>