<?xml version="1.0" encoding="UTF-8" standalone="no"?>
<svg
   xmlns:dc="http://purl.org/dc/elements/1.1/"
   xmlns:cc="http://creativecommons.org/ns#"
   xmlns:rdf="http://www.w3.org/1999/02/22-rdf-syntax-ns#"
   xmlns:svg="http://www.w3.org/2000/svg"
   xmlns="http://www.w3.org/2000/svg"
   xmlns:sodipodi="http://sodipodi.sourceforge.net/DTD/sodipodi-0.dtd"
   xmlns:inkscape="http://www.inkscape.org/namespaces/inkscape"
   id="Capa_1"
   enable-background="new 0 0 512 512"
   height="512"
   viewBox="0 0 512 512"
   width="512"
   version="1.1"
   sodipodi:docname="scan.svg"
   inkscape:version="0.92.3 (2405546, 2018-03-11)">
  <metadata
     id="metadata883">
    <rdf:RDF>
      <cc:Work
         rdf:about="">
        <dc:format>image/svg+xml</dc:format>
        <dc:type
           rdf:resource="http://purl.org/dc/dcmitype/StillImage" />
        <dc:title />
      </cc:Work>
    </rdf:RDF>
  </metadata>
  <defs
     id="defs881" />
  <sodipodi:namedview
     pagecolor="#ffffff"
     bordercolor="#666666"
     borderopacity="1"
     objecttolerance="10"
     gridtolerance="10"
     guidetolerance="10"
     inkscape:pageopacity="0"
     inkscape:pageshadow="2"
     inkscape:window-width="1920"
     inkscape:window-height="1017"
     id="namedview879"
     showgrid="false"
     inkscape:zoom="0.828125"
     inkscape:cx="-70.943038"
     inkscape:cy="354.12761"
     inkscape:window-x="-8"
     inkscape:window-y="-8"
     inkscape:window-maximized="1"
     inkscape:current-layer="layer1" />
  <g
     inkscape:groupmode="layer"
     id="layer1"
     inkscape:label="Layer 1">
    <path
       id="path4796-3"
       d="M 256.00003,512 C 397.16233,512 512,397.15655 512,256 512,114.84343 397.16233,0 256.00003,0 114.83771,0 0,114.84459 0,256 0,397.15541 114.83771,512 256.00003,512 Z"
       style="opacity:1;fill:#009ae4;fill-opacity:1;stroke-width:1.14999843"
       inkscape:connector-curvature="0" />
    <path
       id="path4798-1"
       d="M -0.00443584,256.00058 C -0.00443584,114.84485 114.83524,-4e-6 256.00003,-4e-6 V 512 C 114.83524,512.00115 -0.00443584,397.1563 -0.00443584,256.00058 Z"
       style="opacity:1;fill:#00c0f1;fill-opacity:1;stroke-width:1.15000963"
       inkscape:connector-curvature="0" />
  </g>
  <g
     id="g4701"
     transform="matrix(0.91151092,0,0,0.91151092,21.727343,-2.885611)">
    <g
       transform="matrix(0.60308629,0,0,0.60308629,102.62322,129.62802)"
       id="g876">
      <path
         style="fill:#ffffff;fill-opacity:1"
         inkscape:connector-curvature="0"
         id="path850"
         d="M 431,121.78 V 388.22 C 431,411.26 412.26,430 389.22,430 H 122.78 C 99.74,430 81,411.26 81,388.22 V 121.78 C 81,98.74 99.74,80 122.78,80 H 389.22 C 412.26,80 431,98.74 431,121.78 Z" />
      <path
         style="fill:#edf0f2;fill-opacity:1"
         inkscape:connector-curvature="0"
         id="path852"
         d="M 431,121.78 V 388.22 C 431,411.26 412.26,430 389.22,430 H 256 V 80 H 389.22 C 412.26,80 431,98.74 431,121.78 Z" />
      <path
         style="fill:#58b354"
         inkscape:connector-curvature="0"
         id="path854"
         d="M 496,271 H 16 c -19.844,0 -19.85,-30 0,-30 h 480 c 19.844,0 19.85,30 0,30 z" />
      <path
         style="fill:#00a963"
         inkscape:connector-curvature="0"
         id="path856"
         d="M 496,271 H 256 v -30 h 240 c 19.844,0 19.85,30 0,30 z" />
      <path
         style="fill:#001737"
         inkscape:connector-curvature="0"
         id="path858"
         d="M 482,127 V 55.341 C 482,41.368 470.632,30 456.66,30 H 385 C 365.168,30 365.14,0 385,0 h 71.66 C 487.174,0 512,24.826 512,55.341 V 127 c 0,19.832 -30,19.86 -30,0 z" />
      <path
         style="fill:#001737"
         inkscape:connector-curvature="0"
         id="path860"
         d="M 456.66,512 H 385 c -19.832,0 -19.86,-30 0,-30 h 71.66 C 470.633,482 482,470.632 482,456.659 V 385 c 0,-19.832 30,-19.86 30,0 v 71.659 C 512,487.174 487.174,512 456.66,512 Z" />
      <path
         style="fill:#00357b"
         inkscape:connector-curvature="0"
         id="path862"
         d="M 0,127 V 55.341 C 0,24.826 24.826,0 55.34,0 H 127 c 19.832,0 19.86,30 0,30 H 55.34 C 41.368,30 30,41.368 30,55.341 V 127 c 0,19.832 -30,19.86 -30,0 z" />
      <path
         style="fill:#00357b"
         inkscape:connector-curvature="0"
         id="path864"
         d="M 127,512 H 55.34 C 24.826,512 0,487.174 0,456.659 V 385 c 0,-19.832 30,-19.86 30,0 v 71.659 C 30,470.632 41.368,482 55.34,482 H 127 c 19.832,0 19.86,30 0,30 z" />
      <path
         style="fill:#001737"
         inkscape:connector-curvature="0"
         id="path866"
         d="m 389.218,430 h -47.575 c -19.832,0 -19.86,-30 0,-30 h 47.575 C 395.715,400 401,394.715 401,388.218 v -47.574 c 0,-19.832 30,-19.86 30,0 v 47.574 C 431,411.257 412.256,430 389.218,430 Z" />
      <path
         style="fill:#001737"
         inkscape:connector-curvature="0"
         id="path868"
         d="M 401,169.356 V 121.782 C 401,115.285 395.714,110 389.218,110 h -47.575 c -19.832,0 -19.86,-30 0,-30 h 47.575 C 412.256,80 431,98.743 431,121.782 v 47.574 c 0,19.832 -30,19.86 -30,0 z" />
      <g
         style="fill:#00357b"
         id="g874">
        <path
           inkscape:connector-curvature="0"
           id="path870"
           d="M 81,169.356 V 121.782 C 81,98.743 99.744,80 122.782,80 h 47.575 c 19.832,0 19.86,30 0,30 H 122.782 C 116.285,110 111,115.285 111,121.782 v 47.574 c 0,19.832 -30,19.86 -30,0 z" />
        <path
           inkscape:connector-curvature="0"
           id="path872"
           d="M 170.357,430 H 122.782 C 99.744,430 81,411.257 81,388.218 v -47.574 c 0,-19.832 30,-19.86 30,0 v 47.574 c 0,6.497 5.286,11.782 11.782,11.782 h 47.575 c 19.832,0 19.86,30 0,30 z" />
      </g>
    </g>
  </g>
</svg>
