<?xml version="1.0" encoding="UTF-8" standalone="no"?>
<!-- Created with Inkscape (http://www.inkscape.org/) -->

<svg
   xmlns:dc="http://purl.org/dc/elements/1.1/"
   xmlns:cc="http://creativecommons.org/ns#"
   xmlns:rdf="http://www.w3.org/1999/02/22-rdf-syntax-ns#"
   xmlns:svg="http://www.w3.org/2000/svg"
   xmlns="http://www.w3.org/2000/svg"
   xmlns:sodipodi="http://sodipodi.sourceforge.net/DTD/sodipodi-0.dtd"
   xmlns:inkscape="http://www.inkscape.org/namespaces/inkscape"
   width="512mm"
   height="512mm"
   viewBox="0 0 512 512"
   version="1.1"
   id="svg8"
   inkscape:version="0.92.3 (2405546, 2018-03-11)"
   sodipodi:docname="sound.svg">
  <defs
     id="defs2" />
  <sodipodi:namedview
     id="base"
     pagecolor="#ffffff"
     bordercolor="#666666"
     borderopacity="1.0"
     inkscape:pageopacity="0.0"
     inkscape:pageshadow="2"
     inkscape:zoom="0.35"
     inkscape:cx="752.50782"
     inkscape:cy="1060.0019"
     inkscape:document-units="mm"
     inkscape:current-layer="g851"
     showgrid="false"
     inkscape:window-width="1920"
     inkscape:window-height="1017"
     inkscape:window-x="-8"
     inkscape:window-y="-8"
     inkscape:window-maximized="1" />
  <metadata
     id="metadata5">
    <rdf:RDF>
      <cc:Work
         rdf:about="">
        <dc:format>image/svg+xml</dc:format>
        <dc:type
           rdf:resource="http://purl.org/dc/dcmitype/StillImage" />
        <dc:title></dc:title>
      </cc:Work>
    </rdf:RDF>
  </metadata>
  <g
     inkscape:label="Layer 1"
     inkscape:groupmode="layer"
     id="layer1"
     transform="translate(0,215)">
    <g
       id="g851"
       transform="translate(0,-215.00003)">
      <g
         id="g919"
         transform="matrix(0.26458333,0,0,0.26458333,-375.40536,165.32027)">
        <g
           inkscape:label="Layer 1"
           id="layer1-3"
           transform="matrix(3.7794949,0,0,3.7795276,1418.8717,-624.83241)">
          <path
             inkscape:connector-curvature="0"
             style="opacity:1;fill:#009ae4;fill-opacity:1;stroke-width:1.14999843"
             d="M 256.00003,512 C 397.16233,512 512,397.15655 512,256 512,114.84343 397.16233,0 256.00003,0 114.83771,0 0,114.84459 0,256 0,397.15541 114.83771,512 256.00003,512 Z"
             id="path4796-3" />
          <path
             inkscape:connector-curvature="0"
             style="opacity:1;fill:#00c0f1;fill-opacity:1;stroke-width:1.15000963"
             d="M -0.00443584,256.00058 C -0.00443584,114.84485 114.83524,-4e-6 256.00003,-4e-6 V 512 C 114.83524,512.00115 -0.00443584,397.1563 -0.00443584,256.00058 Z"
             id="path4798-1" />
        </g>
      </g>
      <g
         id="g849"
         transform="translate(5.9961185e-6,-2.7899722)">
        <g
           id="g825">
          <path
             id="path821"
             d="m 125.121,198.31 h -56.64 v 60.48 L 96.6,268.791 134.671,258.79 Z"
             inkscape:connector-curvature="0"
             style="fill:#dddde1" />
          <path
             id="path823"
             d="m 68.481,258.79 v 60.48 h 56.64 l 10,-57.63 -0.45,-2.85 z"
             inkscape:connector-curvature="0"
             style="fill:#b8b8be" />
        </g>
        <g
           id="g831">
          <path
             id="path827"
             d="M 263.519,128.306 125.121,198.31 v 60.48 l 65.799,10.001 72.599,-10.001 z"
             inkscape:connector-curvature="0"
             style="fill:#ffffff" />
          <path
             id="path829"
             d="m 125.121,258.79 v 60.48 l 138.398,70.004 V 258.79 Z"
             inkscape:connector-curvature="0"
             style="fill:#e3eaee" />
        </g>
        <g
           id="g847">
          <path
             id="path833"
             d="m 443.519,149.17 h -30 v 109.62 l 17.881,10.001 12.119,-10.001 z"
             inkscape:connector-curvature="0"
             style="fill:#00ddc0" />
          <path
             id="path835"
             d="m 293.519,214.57 v 44.22 l 15,10.001 15,-10.001 v -44.22 z"
             inkscape:connector-curvature="0"
             style="fill:#00ddc0" />
          <path
             id="path837"
             d="m 293.519,258.79 h 30 v 44.22 h -30 z"
             inkscape:connector-curvature="0"
             style="fill:#00ba9f" />
          <path
             id="path839"
             d="m 353.519,181.87 v 76.92 l 15,10.001 15,-10.001 v -76.92 z"
             inkscape:connector-curvature="0"
             style="fill:#00ddc0" />
          <g
             id="g845"
             style="fill:#00ba9f">
            <path
               id="path841"
               d="m 353.519,258.79 h 30 v 76.92 h -30 z"
               inkscape:connector-curvature="0" />
            <path
               id="path843"
               d="m 413.519,258.79 h 30 v 109.62 h -30 z"
               inkscape:connector-curvature="0" />
          </g>
        </g>
      </g>
    </g>
  </g>
</svg>
