<?xml version="1.0" encoding="UTF-8" standalone="no"?>
<!-- Created with Inkscape (http://www.inkscape.org/) -->

<svg
   xmlns:dc="http://purl.org/dc/elements/1.1/"
   xmlns:cc="http://creativecommons.org/ns#"
   xmlns:rdf="http://www.w3.org/1999/02/22-rdf-syntax-ns#"
   xmlns:svg="http://www.w3.org/2000/svg"
   xmlns="http://www.w3.org/2000/svg"
   xmlns:sodipodi="http://sodipodi.sourceforge.net/DTD/sodipodi-0.dtd"
   xmlns:inkscape="http://www.inkscape.org/namespaces/inkscape"
   width="512mm"
   height="512mm"
   viewBox="0 0 512 512"
   version="1.1"
   id="svg5413"
   inkscape:version="0.92.3 (2405546, 2018-03-11)"
   sodipodi:docname="stop.svg">
  <defs
     id="defs5407" />
  <sodipodi:namedview
     id="base"
     pagecolor="#ffffff"
     bordercolor="#666666"
     borderopacity="1.0"
     inkscape:pageopacity="0.0"
     inkscape:pageshadow="2"
     inkscape:zoom="0.12374369"
     inkscape:cx="1153.2744"
     inkscape:cy="11.9023"
     inkscape:document-units="mm"
     inkscape:current-layer="layer1"
     showgrid="false"
     inkscape:window-width="1920"
     inkscape:window-height="1017"
     inkscape:window-x="-8"
     inkscape:window-y="-8"
     inkscape:window-maximized="1" />
  <metadata
     id="metadata5410">
    <rdf:RDF>
      <cc:Work
         rdf:about="">
        <dc:format>image/svg+xml</dc:format>
        <dc:type
           rdf:resource="http://purl.org/dc/dcmitype/StillImage" />
        <dc:title></dc:title>
      </cc:Work>
    </rdf:RDF>
  </metadata>
  <g
     inkscape:label="Layer 1"
     inkscape:groupmode="layer"
     id="layer1"
     transform="translate(0,215)">
    <g
       id="g919"
       transform="matrix(0.26458333,0,0,0.26458333,-375.40536,-49.6798)">
      <g
         inkscape:label="Layer 1"
         id="layer1-3"
         transform="matrix(3.7794949,0,0,3.7795276,1418.8717,-624.83241)">
        <path
           inkscape:connector-curvature="0"
           style="opacity:1;fill:#009ae4;fill-opacity:1;stroke-width:1.14999843"
           d="M 256.00003,512 C 397.16233,512 512,397.15655 512,256 512,114.84343 397.16233,0 256.00003,0 114.83771,0 0,114.84459 0,256 0,397.15541 114.83771,512 256.00003,512 Z"
           id="path4796-3" />
        <path
           inkscape:connector-curvature="0"
           style="opacity:1;fill:#00c0f1;fill-opacity:1;stroke-width:1.15000963"
           d="M -0.00443584,256.00058 C -0.00443584,114.84485 114.83524,-4e-6 256.00003,-4e-6 V 512 C 114.83524,512.00115 -0.00443584,397.1563 -0.00443584,256.00058 Z"
           id="path4798-1" />
      </g>
    </g>
    <g
       id="g6102"
       transform="translate(-1.889869,7.1815978)">
      <path
         style="fill:#ffffff;fill-opacity:1;stroke-width:1.21914673"
         inkscape:connector-curvature="0"
         id="path4787-0"
         d="m 349.32588,-75.90485 h -182.872 c -10.24369,0 -18.28722,8.04352 -18.28722,18.28721 V 125.2544 c 0,10.23892 8.04353,18.28717 18.28722,18.28717 h 182.872 c 10.24369,0 18.28721,-8.04825 18.28721,-18.28717 V -57.61764 c 0,-10.24369 -8.04352,-18.28721 -18.28721,-18.28721 z m 0,0" />
      <path
         style="fill:#edf0f2;fill-opacity:1;stroke-width:1.21914673"
         inkscape:connector-curvature="0"
         id="path4789"
         d="M 367.61309,-57.61764 V 125.2544 c 0,10.23892 -8.04352,18.28717 -18.28721,18.28717 h -91.436 V -75.90485 h 91.436 c 10.24369,0 18.28721,8.04352 18.28721,18.28721 z m 0,0" />
    </g>
  </g>
</svg>
